<?xml version="1.0" encoding="UTF-8" standalone="no"?>
<!-- Created with Inkscape (http://www.inkscape.org/) -->

<svg
   xmlns:dc="http://purl.org/dc/elements/1.1/"
   xmlns:cc="http://creativecommons.org/ns#"
   xmlns:rdf="http://www.w3.org/1999/02/22-rdf-syntax-ns#"
   xmlns:svg="http://www.w3.org/2000/svg"
   xmlns="http://www.w3.org/2000/svg"
   xmlns:sodipodi="http://sodipodi.sourceforge.net/DTD/sodipodi-0.dtd"
   xmlns:inkscape="http://www.inkscape.org/namespaces/inkscape"
   width="420mm"
   height="297mm"
   viewBox="0 0 420 297.00001"
   version="1.1"
   id="svg8"
   inkscape:version="0.91 r13725"
   sodipodi:docname="LEDPanelCutme.svg">
  <defs
     id="defs2">
    <marker
       style="overflow:visible"
       refY="0"
       refX="0"
       orient="auto"
       id="DistanceX">
      <path
         id="path4520"
         style="stroke:#000000;stroke-width:0.5"
         d="M 3,-3 -3,3 M 0,-5 0,5"
         inkscape:connector-curvature="0" />
    </marker>
    <pattern
       y="0"
       x="0"
       width="8"
       patternUnits="userSpaceOnUse"
       id="Hatch"
       height="8">
      <path
         id="path4523"
         stroke-width="0.25"
         stroke="#000000"
         linecap="square"
         d="M8 4 l-4,4" />
      <path
         id="path4525"
         stroke-width="0.25"
         stroke="#000000"
         linecap="square"
         d="M6 2 l-4,4" />
      <path
         id="path4527"
         stroke-width="0.25"
         stroke="#000000"
         linecap="square"
         d="M4 0 l-4,4" />
    </pattern>
    <symbol
       id="*MODEL_SPACE" />
    <symbol
       id="*PAPER_SPACE" />
  </defs>
  <sodipodi:namedview
     id="base"
     pagecolor="#ffffff"
     bordercolor="#666666"
     borderopacity="1.0"
     inkscape:pageopacity="0.0"
     inkscape:pageshadow="2"
     inkscape:zoom="0.24748737"
     inkscape:cx="1070.5078"
     inkscape:cy="1062.1784"
     inkscape:document-units="mm"
     inkscape:current-layer="layer1"
     showgrid="false"
     units="mm"
     inkscape:window-width="1920"
     inkscape:window-height="1017"
     inkscape:window-x="-8"
     inkscape:window-y="601"
     inkscape:window-maximized="1" />
  <metadata
     id="metadata5">
    <rdf:RDF>
      <cc:Work
         rdf:about="">
        <dc:format>image/svg+xml</dc:format>
        <dc:type
           rdf:resource="http://purl.org/dc/dcmitype/StillImage" />
        <dc:title></dc:title>
      </cc:Work>
    </rdf:RDF>
  </metadata>
  <g
     inkscape:label="Layer 1"
     inkscape:groupmode="layer"
     id="layer1"
     transform="translate(0,-2.6389918e-6)">
    <g
       id="g5058"
       transform="translate(-39.237709,39.237708)">
      <path
         id="path4534"
         style="fill:none;stroke:#ff0000;stroke-width:0.26458332"
         d="m 245.43,257.62998 -186.059999,0 a 20,20 0 0 1 -20,-20.00001 l 0,-186.059986 a 20,20 0 0 1 20,-20.000002 l 186.059999,0 a 20,20 0 0 1 20,20.000002 l 0,186.059986 a 20,20 0 0 1 -20,20.00001 z"
         inkscape:connector-curvature="0" />
      <path
         id="path4536"
         style="fill:none;stroke:#0000ff;stroke-width:0.26458332"
         d="m 76.62,226.12999 a 5.7499998,5.7499998 0 1 0 -11.499999,0 5.7499998,5.7499998 0 1 0 11.499999,0 z"
         inkscape:connector-curvature="0" />
      <path
         id="path4538"
         style="fill:none;stroke:#0000ff;stroke-width:0.26458332"
         d="m 97.0025,226.12999 a 5.7500005,5.7500005 0 1 0 -11.500001,0 5.7500005,5.7500005 0 1 0 11.500001,0 z"
         inkscape:connector-curvature="0" />
      <path
         id="path4540"
         style="fill:none;stroke:#0000ff;stroke-width:0.26458332"
         d="m 117.385,226.12999 a 5.75,5.75 0 1 0 -11.5,0 5.7500001,5.7500001 0 1 0 11.5,0 z"
         inkscape:connector-curvature="0" />
      <path
         id="path4542"
         style="fill:none;stroke:#0000ff;stroke-width:0.26458332"
         d="m 137.7675,226.12999 a 5.75,5.75 0 1 0 -11.5,0 5.7500001,5.7500001 0 1 0 11.5,0 z"
         inkscape:connector-curvature="0" />
      <path
         id="path4544"
         style="fill:none;stroke:#0000ff;stroke-width:0.26458332"
         d="m 158.15,226.12999 a 5.75,5.75 0 1 0 -11.5,0 5.75,5.75 0 1 0 11.5,0 z"
         inkscape:connector-curvature="0" />
      <path
         id="path4546"
         style="fill:none;stroke:#0000ff;stroke-width:0.26458332"
         d="m 178.5325,226.12999 a 5.75,5.75 0 1 0 -11.5,0 5.7500001,5.7500001 0 1 0 11.5,0 z"
         inkscape:connector-curvature="0" />
      <path
         id="path4548"
         style="fill:none;stroke:#0000ff;stroke-width:0.26458332"
         d="m 198.915,226.12999 a 5.75,5.75 0 1 0 -11.5,0 5.75,5.75 0 1 0 11.5,0 z"
         inkscape:connector-curvature="0" />
      <path
         id="path4550"
         style="fill:none;stroke:#0000ff;stroke-width:0.26458332"
         d="m 219.2975,226.12999 a 5.75,5.75 0 1 0 -11.5,0 5.75,5.75 0 1 0 11.5,0 z"
         inkscape:connector-curvature="0" />
      <path
         id="path4552"
         style="fill:none;stroke:#0000ff;stroke-width:0.26458332"
         d="m 239.68,226.12999 a 5.7500003,5.7500003 0 1 0 -11.5,0 5.7500003,5.7500003 0 1 0 11.5,0 z"
         inkscape:connector-curvature="0" />
      <path
         id="path4554"
         style="fill:none;stroke:#0000ff;stroke-width:0.26458332"
         d="m 76.62,205.74748 a 5.7499998,5.7499998 0 1 0 -11.499999,0 5.7499998,5.7499998 0 1 0 11.499999,0 z"
         inkscape:connector-curvature="0" />
      <path
         id="path4556"
         style="fill:none;stroke:#0000ff;stroke-width:0.26458332"
         d="m 97.0025,205.74748 a 5.7500005,5.7500005 0 1 0 -11.500001,0 5.7500005,5.7500005 0 1 0 11.500001,0 z"
         inkscape:connector-curvature="0" />
      <path
         id="path4558"
         style="fill:none;stroke:#0000ff;stroke-width:0.26458332"
         d="m 117.385,205.74748 a 5.75,5.75 0 1 0 -11.5,0 5.7500001,5.7500001 0 1 0 11.5,0 z"
         inkscape:connector-curvature="0" />
      <path
         id="path4560"
         style="fill:none;stroke:#0000ff;stroke-width:0.26458332"
         d="m 137.7675,205.74748 a 5.75,5.75 0 1 0 -11.5,0 5.7500001,5.7500001 0 1 0 11.5,0 z"
         inkscape:connector-curvature="0" />
      <path
         id="path4562"
         style="fill:none;stroke:#0000ff;stroke-width:0.26458332"
         d="m 158.15,205.74748 a 5.75,5.75 0 1 0 -11.5,0 5.75,5.75 0 1 0 11.5,0 z"
         inkscape:connector-curvature="0" />
      <path
         id="path4564"
         style="fill:none;stroke:#0000ff;stroke-width:0.26458332"
         d="m 178.5325,205.74748 a 5.75,5.75 0 1 0 -11.5,0 5.7500001,5.7500001 0 1 0 11.5,0 z"
         inkscape:connector-curvature="0" />
      <path
         id="path4566"
         style="fill:none;stroke:#0000ff;stroke-width:0.26458332"
         d="m 198.915,205.74748 a 5.75,5.75 0 1 0 -11.5,0 5.75,5.75 0 1 0 11.5,0 z"
         inkscape:connector-curvature="0" />
      <path
         id="path4568"
         style="fill:none;stroke:#0000ff;stroke-width:0.26458332"
         d="m 219.2975,205.74748 a 5.75,5.75 0 1 0 -11.5,0 5.75,5.75 0 1 0 11.5,0 z"
         inkscape:connector-curvature="0" />
      <path
         id="path4570"
         style="fill:none;stroke:#0000ff;stroke-width:0.26458332"
         d="m 239.68,205.74748 a 5.7500003,5.7500003 0 1 0 -11.5,0 5.7500003,5.7500003 0 1 0 11.5,0 z"
         inkscape:connector-curvature="0" />
      <path
         id="path4572"
         style="fill:none;stroke:#0000ff;stroke-width:0.26458332"
         d="m 76.62,185.36498 a 5.7499998,5.7499998 0 1 0 -11.499999,0 5.7499998,5.7499998 0 1 0 11.499999,0 z"
         inkscape:connector-curvature="0" />
      <path
         id="path4574"
         style="fill:none;stroke:#0000ff;stroke-width:0.26458332"
         d="m 97.0025,185.36498 a 5.7500005,5.7500005 0 1 0 -11.500001,0 5.7500005,5.7500005 0 1 0 11.500001,0 z"
         inkscape:connector-curvature="0" />
      <path
         id="path4576"
         style="fill:none;stroke:#0000ff;stroke-width:0.26458332"
         d="m 117.385,185.36498 a 5.75,5.75 0 1 0 -11.5,0 5.7500001,5.7500001 0 1 0 11.5,0 z"
         inkscape:connector-curvature="0" />
      <path
         id="path4578"
         style="fill:none;stroke:#0000ff;stroke-width:0.26458332"
         d="m 137.7675,185.36498 a 5.75,5.75 0 1 0 -11.5,0 5.7500001,5.7500001 0 1 0 11.5,0 z"
         inkscape:connector-curvature="0" />
      <path
         id="path4580"
         style="fill:none;stroke:#0000ff;stroke-width:0.26458332"
         d="m 158.15,185.36498 a 5.75,5.75 0 1 0 -11.5,0 5.75,5.75 0 1 0 11.5,0 z"
         inkscape:connector-curvature="0" />
      <path
         id="path4582"
         style="fill:none;stroke:#0000ff;stroke-width:0.26458332"
         d="m 178.5325,185.36498 a 5.75,5.75 0 1 0 -11.5,0 5.7500001,5.7500001 0 1 0 11.5,0 z"
         inkscape:connector-curvature="0" />
      <path
         id="path4584"
         style="fill:none;stroke:#0000ff;stroke-width:0.26458332"
         d="m 198.915,185.36498 a 5.75,5.75 0 1 0 -11.5,0 5.75,5.75 0 1 0 11.5,0 z"
         inkscape:connector-curvature="0" />
      <path
         id="path4586"
         style="fill:none;stroke:#0000ff;stroke-width:0.26458332"
         d="m 219.2975,185.36498 a 5.75,5.75 0 1 0 -11.5,0 5.75,5.75 0 1 0 11.5,0 z"
         inkscape:connector-curvature="0" />
      <path
         id="path4588"
         style="fill:none;stroke:#0000ff;stroke-width:0.26458332"
         d="m 239.68,185.36498 a 5.7500003,5.7500003 0 1 0 -11.5,0 5.7500003,5.7500003 0 1 0 11.5,0 z"
         inkscape:connector-curvature="0" />
      <path
         id="path4590"
         style="fill:none;stroke:#0000ff;stroke-width:0.26458332"
         d="m 76.62,164.98248 a 5.7499998,5.7499998 0 1 0 -11.499999,0 5.7499998,5.7499998 0 1 0 11.499999,0 z"
         inkscape:connector-curvature="0" />
      <path
         id="path4592"
         style="fill:none;stroke:#0000ff;stroke-width:0.26458332"
         d="m 97.0025,164.98248 a 5.7500005,5.7500005 0 1 0 -11.500001,0 5.7500005,5.7500005 0 1 0 11.500001,0 z"
         inkscape:connector-curvature="0" />
      <path
         id="path4594"
         style="fill:none;stroke:#0000ff;stroke-width:0.26458332"
         d="m 117.385,164.98248 a 5.75,5.75 0 1 0 -11.5,0 5.7500001,5.7500001 0 1 0 11.5,0 z"
         inkscape:connector-curvature="0" />
      <path
         id="path4596"
         style="fill:none;stroke:#0000ff;stroke-width:0.26458332"
         d="m 137.7675,164.98248 a 5.75,5.75 0 1 0 -11.5,0 5.7500001,5.7500001 0 1 0 11.5,0 z"
         inkscape:connector-curvature="0" />
      <path
         id="path4598"
         style="fill:none;stroke:#0000ff;stroke-width:0.26458332"
         d="m 158.15,164.98248 a 5.75,5.75 0 1 0 -11.5,0 5.75,5.75 0 1 0 11.5,0 z"
         inkscape:connector-curvature="0" />
      <path
         id="path4600"
         style="fill:none;stroke:#0000ff;stroke-width:0.26458332"
         d="m 178.5325,164.98248 a 5.75,5.75 0 1 0 -11.5,0 5.7500001,5.7500001 0 1 0 11.5,0 z"
         inkscape:connector-curvature="0" />
      <path
         id="path4602"
         style="fill:none;stroke:#0000ff;stroke-width:0.26458332"
         d="m 198.915,164.98248 a 5.75,5.75 0 1 0 -11.5,0 5.75,5.75 0 1 0 11.5,0 z"
         inkscape:connector-curvature="0" />
      <path
         id="path4604"
         style="fill:none;stroke:#0000ff;stroke-width:0.26458332"
         d="m 219.2975,164.98248 a 5.75,5.75 0 1 0 -11.5,0 5.75,5.75 0 1 0 11.5,0 z"
         inkscape:connector-curvature="0" />
      <path
         id="path4606"
         style="fill:none;stroke:#0000ff;stroke-width:0.26458332"
         d="m 239.68,164.98248 a 5.7500003,5.7500003 0 1 0 -11.5,0 5.7500003,5.7500003 0 1 0 11.5,0 z"
         inkscape:connector-curvature="0" />
      <path
         id="path4608"
         style="fill:none;stroke:#0000ff;stroke-width:0.26458332"
         d="m 76.62,144.59998 a 5.7499998,5.7499998 0 1 0 -11.499999,0 5.7499998,5.7499998 0 1 0 11.499999,0 z"
         inkscape:connector-curvature="0" />
      <path
         id="path4610"
         style="fill:none;stroke:#0000ff;stroke-width:0.26458332"
         d="m 97.0025,144.59998 a 5.7500005,5.7500005 0 1 0 -11.500001,0 5.7500005,5.7500005 0 1 0 11.500001,0 z"
         inkscape:connector-curvature="0" />
      <path
         id="path4612"
         style="fill:none;stroke:#0000ff;stroke-width:0.26458332"
         d="m 117.385,144.59998 a 5.75,5.75 0 1 0 -11.5,0 5.7500001,5.7500001 0 1 0 11.5,0 z"
         inkscape:connector-curvature="0" />
      <path
         id="path4614"
         style="fill:none;stroke:#0000ff;stroke-width:0.26458332"
         d="m 137.7675,144.59998 a 5.75,5.75 0 1 0 -11.5,0 5.7500001,5.7500001 0 1 0 11.5,0 z"
         inkscape:connector-curvature="0" />
      <path
         id="path4616"
         style="fill:none;stroke:#0000ff;stroke-width:0.26458332"
         d="m 158.15,144.59998 a 5.75,5.75 0 1 0 -11.5,0 5.75,5.75 0 1 0 11.5,0 z"
         inkscape:connector-curvature="0" />
      <path
         id="path4618"
         style="fill:none;stroke:#0000ff;stroke-width:0.26458332"
         d="m 178.5325,144.59998 a 5.75,5.75 0 1 0 -11.5,0 5.7500001,5.7500001 0 1 0 11.5,0 z"
         inkscape:connector-curvature="0" />
      <path
         id="path4620"
         style="fill:none;stroke:#0000ff;stroke-width:0.26458332"
         d="m 198.915,144.59998 a 5.75,5.75 0 1 0 -11.5,0 5.75,5.75 0 1 0 11.5,0 z"
         inkscape:connector-curvature="0" />
      <path
         id="path4622"
         style="fill:none;stroke:#0000ff;stroke-width:0.26458332"
         d="m 219.2975,144.59998 a 5.75,5.75 0 1 0 -11.5,0 5.75,5.75 0 1 0 11.5,0 z"
         inkscape:connector-curvature="0" />
      <path
         id="path4624"
         style="fill:none;stroke:#0000ff;stroke-width:0.26458332"
         d="m 239.68,144.59998 a 5.7500003,5.7500003 0 1 0 -11.5,0 5.7500003,5.7500003 0 1 0 11.5,0 z"
         inkscape:connector-curvature="0" />
      <path
         id="path4626"
         style="fill:none;stroke:#0000ff;stroke-width:0.26458332"
         d="m 76.62,124.21748 a 5.7499998,5.7499998 0 1 0 -11.499999,0 5.7499998,5.7499998 0 1 0 11.499999,0 z"
         inkscape:connector-curvature="0" />
      <path
         id="path4628"
         style="fill:none;stroke:#0000ff;stroke-width:0.26458332"
         d="m 97.0025,124.21748 a 5.7500005,5.7500005 0 1 0 -11.500001,0 5.7500005,5.7500005 0 1 0 11.500001,0 z"
         inkscape:connector-curvature="0" />
      <path
         id="path4630"
         style="fill:none;stroke:#0000ff;stroke-width:0.26458332"
         d="m 117.385,124.21748 a 5.75,5.75 0 1 0 -11.5,0 5.7500001,5.7500001 0 1 0 11.5,0 z"
         inkscape:connector-curvature="0" />
      <path
         id="path4632"
         style="fill:none;stroke:#0000ff;stroke-width:0.26458332"
         d="m 137.7675,124.21748 a 5.75,5.75 0 1 0 -11.5,0 5.7500001,5.7500001 0 1 0 11.5,0 z"
         inkscape:connector-curvature="0" />
      <path
         id="path4634"
         style="fill:none;stroke:#0000ff;stroke-width:0.26458332"
         d="m 158.15,124.21748 a 5.75,5.75 0 1 0 -11.5,0 5.75,5.75 0 1 0 11.5,0 z"
         inkscape:connector-curvature="0" />
      <path
         id="path4636"
         style="fill:none;stroke:#0000ff;stroke-width:0.26458332"
         d="m 178.5325,124.21748 a 5.75,5.75 0 1 0 -11.5,0 5.7500001,5.7500001 0 1 0 11.5,0 z"
         inkscape:connector-curvature="0" />
      <path
         id="path4638"
         style="fill:none;stroke:#0000ff;stroke-width:0.26458332"
         d="m 198.915,124.21748 a 5.75,5.75 0 1 0 -11.5,0 5.75,5.75 0 1 0 11.5,0 z"
         inkscape:connector-curvature="0" />
      <path
         id="path4640"
         style="fill:none;stroke:#0000ff;stroke-width:0.26458332"
         d="m 219.2975,124.21748 a 5.75,5.75 0 1 0 -11.5,0 5.75,5.75 0 1 0 11.5,0 z"
         inkscape:connector-curvature="0" />
      <path
         id="path4642"
         style="fill:none;stroke:#0000ff;stroke-width:0.26458332"
         d="m 239.68,124.21748 a 5.7500003,5.7500003 0 1 0 -11.5,0 5.7500003,5.7500003 0 1 0 11.5,0 z"
         inkscape:connector-curvature="0" />
      <path
         id="path4644"
         style="fill:none;stroke:#0000ff;stroke-width:0.26458332"
         d="m 76.62,103.83498 a 5.7499998,5.7499998 0 1 0 -11.499999,0 5.7499998,5.7499998 0 1 0 11.499999,0 z"
         inkscape:connector-curvature="0" />
      <path
         id="path4646"
         style="fill:none;stroke:#0000ff;stroke-width:0.26458332"
         d="m 97.0025,103.83498 a 5.7500005,5.7500005 0 1 0 -11.500001,0 5.7500005,5.7500005 0 1 0 11.500001,0 z"
         inkscape:connector-curvature="0" />
      <path
         id="path4648"
         style="fill:none;stroke:#0000ff;stroke-width:0.26458332"
         d="m 117.385,103.83498 a 5.75,5.75 0 1 0 -11.5,0 5.7500001,5.7500001 0 1 0 11.5,0 z"
         inkscape:connector-curvature="0" />
      <path
         id="path4650"
         style="fill:none;stroke:#0000ff;stroke-width:0.26458332"
         d="m 137.7675,103.83498 a 5.75,5.75 0 1 0 -11.5,0 5.7500001,5.7500001 0 1 0 11.5,0 z"
         inkscape:connector-curvature="0" />
      <path
         id="path4652"
         style="fill:none;stroke:#0000ff;stroke-width:0.26458332"
         d="m 158.15,103.83498 a 5.75,5.75 0 1 0 -11.5,0 5.75,5.75 0 1 0 11.5,0 z"
         inkscape:connector-curvature="0" />
      <path
         id="path4654"
         style="fill:none;stroke:#0000ff;stroke-width:0.26458332"
         d="m 178.5325,103.83498 a 5.75,5.75 0 1 0 -11.5,0 5.7500001,5.7500001 0 1 0 11.5,0 z"
         inkscape:connector-curvature="0" />
      <path
         id="path4656"
         style="fill:none;stroke:#0000ff;stroke-width:0.26458332"
         d="m 198.915,103.83498 a 5.75,5.75 0 1 0 -11.5,0 5.75,5.75 0 1 0 11.5,0 z"
         inkscape:connector-curvature="0" />
      <path
         id="path4658"
         style="fill:none;stroke:#0000ff;stroke-width:0.26458332"
         d="m 219.2975,103.83498 a 5.75,5.75 0 1 0 -11.5,0 5.75,5.75 0 1 0 11.5,0 z"
         inkscape:connector-curvature="0" />
      <path
         id="path4660"
         style="fill:none;stroke:#0000ff;stroke-width:0.26458332"
         d="m 239.68,103.83498 a 5.7500003,5.7500003 0 1 0 -11.5,0 5.7500003,5.7500003 0 1 0 11.5,0 z"
         inkscape:connector-curvature="0" />
      <path
         id="path4662"
         style="fill:none;stroke:#0000ff;stroke-width:0.26458332"
         d="m 76.62,83.452481 a 5.7499998,5.7499998 0 1 0 -11.499999,0 5.7499998,5.7499998 0 1 0 11.499999,0 z"
         inkscape:connector-curvature="0" />
      <path
         id="path4664"
         style="fill:none;stroke:#0000ff;stroke-width:0.26458332"
         d="m 97.0025,83.452481 a 5.7500005,5.7500005 0 1 0 -11.500001,0 5.7500005,5.7500005 0 1 0 11.500001,0 z"
         inkscape:connector-curvature="0" />
      <path
         id="path4666"
         style="fill:none;stroke:#0000ff;stroke-width:0.26458332"
         d="m 117.385,83.452481 a 5.75,5.75 0 1 0 -11.5,0 5.7500001,5.7500001 0 1 0 11.5,0 z"
         inkscape:connector-curvature="0" />
      <path
         id="path4668"
         style="fill:none;stroke:#0000ff;stroke-width:0.26458332"
         d="m 137.7675,83.452481 a 5.75,5.75 0 1 0 -11.5,0 5.7500001,5.7500001 0 1 0 11.5,0 z"
         inkscape:connector-curvature="0" />
      <path
         id="path4670"
         style="fill:none;stroke:#0000ff;stroke-width:0.26458332"
         d="m 158.15,83.452481 a 5.75,5.75 0 1 0 -11.5,0 5.75,5.75 0 1 0 11.5,0 z"
         inkscape:connector-curvature="0" />
      <path
         id="path4672"
         style="fill:none;stroke:#0000ff;stroke-width:0.26458332"
         d="m 178.5325,83.452481 a 5.75,5.75 0 1 0 -11.5,0 5.7500001,5.7500001 0 1 0 11.5,0 z"
         inkscape:connector-curvature="0" />
      <path
         id="path4674"
         style="fill:none;stroke:#0000ff;stroke-width:0.26458332"
         d="m 198.915,83.452481 a 5.75,5.75 0 1 0 -11.5,0 5.75,5.75 0 1 0 11.5,0 z"
         inkscape:connector-curvature="0" />
      <path
         id="path4676"
         style="fill:none;stroke:#0000ff;stroke-width:0.26458332"
         d="m 219.2975,83.452481 a 5.75,5.75 0 1 0 -11.5,0 5.75,5.75 0 1 0 11.5,0 z"
         inkscape:connector-curvature="0" />
      <path
         id="path4678"
         style="fill:none;stroke:#0000ff;stroke-width:0.26458332"
         d="m 239.68,83.452481 a 5.7500003,5.7500003 0 1 0 -11.5,0 5.7500003,5.7500003 0 1 0 11.5,0 z"
         inkscape:connector-curvature="0" />
      <path
         id="path4680"
         style="fill:none;stroke:#0000ff;stroke-width:0.26458332"
         d="m 76.62,63.069982 a 5.7499998,5.7499998 0 1 0 -11.499999,0 5.7499998,5.7499998 0 1 0 11.499999,0 z"
         inkscape:connector-curvature="0" />
      <path
         id="path4682"
         style="fill:none;stroke:#0000ff;stroke-width:0.26458332"
         d="m 97.0025,63.069982 a 5.7500005,5.7500005 0 1 0 -11.500001,0 5.7500005,5.7500005 0 1 0 11.500001,0 z"
         inkscape:connector-curvature="0" />
      <path
         id="path4684"
         style="fill:none;stroke:#0000ff;stroke-width:0.26458332"
         d="m 117.385,63.069982 a 5.75,5.75 0 1 0 -11.5,0 5.7500001,5.7500001 0 1 0 11.5,0 z"
         inkscape:connector-curvature="0" />
      <path
         id="path4686"
         style="fill:none;stroke:#0000ff;stroke-width:0.26458332"
         d="m 137.7675,63.069982 a 5.75,5.75 0 1 0 -11.5,0 5.7500001,5.7500001 0 1 0 11.5,0 z"
         inkscape:connector-curvature="0" />
      <path
         id="path4688"
         style="fill:none;stroke:#0000ff;stroke-width:0.26458332"
         d="m 158.15,63.069982 a 5.75,5.75 0 1 0 -11.5,0 5.75,5.75 0 1 0 11.5,0 z"
         inkscape:connector-curvature="0" />
      <path
         id="path4690"
         style="fill:none;stroke:#0000ff;stroke-width:0.26458332"
         d="m 178.5325,63.069982 a 5.75,5.75 0 1 0 -11.5,0 5.7500001,5.7500001 0 1 0 11.5,0 z"
         inkscape:connector-curvature="0" />
      <path
         id="path4692"
         style="fill:none;stroke:#0000ff;stroke-width:0.26458332"
         d="m 198.915,63.069982 a 5.75,5.75 0 1 0 -11.5,0 5.75,5.75 0 1 0 11.5,0 z"
         inkscape:connector-curvature="0" />
      <path
         id="path4694"
         style="fill:none;stroke:#0000ff;stroke-width:0.26458332"
         d="m 219.2975,63.069982 a 5.75,5.75 0 1 0 -11.5,0 5.75,5.75 0 1 0 11.5,0 z"
         inkscape:connector-curvature="0" />
      <path
         id="path4696"
         style="fill:none;stroke:#0000ff;stroke-width:0.26458332"
         d="m 239.68,63.069982 a 5.7500003,5.7500003 0 1 0 -11.5,0 5.7500003,5.7500003 0 1 0 11.5,0 z"
         inkscape:connector-curvature="0" />
    </g>
  </g>
</svg>
