<?xml version="1.0" encoding="UTF-8" standalone="no"?>
<!-- Created with Inkscape (http://www.inkscape.org/) -->

<svg
   xmlns:dc="http://purl.org/dc/elements/1.1/"
   xmlns:cc="http://creativecommons.org/ns#"
   xmlns:rdf="http://www.w3.org/1999/02/22-rdf-syntax-ns#"
   xmlns:svg="http://www.w3.org/2000/svg"
   xmlns="http://www.w3.org/2000/svg"
   xmlns:sodipodi="http://sodipodi.sourceforge.net/DTD/sodipodi-0.dtd"
   xmlns:inkscape="http://www.inkscape.org/namespaces/inkscape"
   width="420mm"
   height="297mm"
   viewBox="0 0 420 297.00001"
   version="1.1"
   id="svg8"
   inkscape:version="0.92.4 (5da689c313, 2019-01-14)"
   sodipodi:docname="Sun.svg">
  <defs
     id="defs2">
    <marker
       style="overflow:visible"
       refY="0"
       refX="0"
       orient="auto"
       id="DistanceX">
      <path
         id="path4520"
         style="stroke:#000000;stroke-width:0.5"
         d="M 3,-3 -3,3 M 0,-5 0,5"
         inkscape:connector-curvature="0" />
    </marker>
    <pattern
       y="0"
       x="0"
       width="8"
       patternUnits="userSpaceOnUse"
       id="Hatch"
       height="8">
      <path
         id="path4523"
         stroke-width="0.25"
         stroke="#000000"
         linecap="square"
         d="M8 4 l-4,4" />
      <path
         id="path4525"
         stroke-width="0.25"
         stroke="#000000"
         linecap="square"
         d="M6 2 l-4,4" />
      <path
         id="path4527"
         stroke-width="0.25"
         stroke="#000000"
         linecap="square"
         d="M4 0 l-4,4" />
    </pattern>
    <symbol
       id="*MODEL_SPACE" />
    <symbol
       id="*PAPER_SPACE" />
  </defs>
  <sodipodi:namedview
     id="base"
     pagecolor="#ffffff"
     bordercolor="#666666"
     borderopacity="1.0"
     inkscape:pageopacity="0.0"
     inkscape:pageshadow="2"
     inkscape:zoom="0.69999999"
     inkscape:cx="134.54842"
     inkscape:cy="589.67793"
     inkscape:document-units="mm"
     inkscape:current-layer="g4638"
     showgrid="false"
     units="mm"
     inkscape:window-width="1920"
     inkscape:window-height="1017"
     inkscape:window-x="-8"
     inkscape:window-y="399"
     inkscape:window-maximized="1" />
  <metadata
     id="metadata5">
    <rdf:RDF>
      <cc:Work
         rdf:about="">
        <dc:format>image/svg+xml</dc:format>
        <dc:type
           rdf:resource="http://purl.org/dc/dcmitype/StillImage" />
        <dc:title></dc:title>
      </cc:Work>
    </rdf:RDF>
  </metadata>
  <g
     inkscape:label="Layer 1"
     inkscape:groupmode="layer"
     id="layer1"
     transform="translate(0,-2.6389918e-6)">
    <g
       id="g5058"
       transform="translate(-39.237709,39.237708)">
      <path
         id="path4534"
         style="fill:none;stroke:#ff0000;stroke-width:0.26458332"
         d="m 245.43,257.62998 -186.059999,0 a 20,20 0 0 1 -20,-20.00001 l 0,-186.059986 a 20,20 0 0 1 20,-20.000002 l 186.059999,0 a 20,20 0 0 1 20,20.000002 l 0,186.059986 a 20,20 0 0 1 -20,20.00001 z"
         inkscape:connector-curvature="0" />
      <path
         id="path4536"
         style="fill:none;stroke:#0000ff;stroke-width:0.26458332"
         d="m 76.62,226.12999 a 5.7499998,5.7499998 0 1 0 -11.499999,0 5.7499998,5.7499998 0 1 0 11.499999,0 z"
         inkscape:connector-curvature="0" />
      <path
         id="path4538"
         style="fill:none;stroke:#0000ff;stroke-width:0.26458332"
         d="m 97.0025,226.12999 a 5.7500005,5.7500005 0 1 0 -11.500001,0 5.7500005,5.7500005 0 1 0 11.500001,0 z"
         inkscape:connector-curvature="0" />
      <path
         id="path4540"
         style="fill:none;stroke:#0000ff;stroke-width:0.26458332"
         d="m 117.385,226.12999 a 5.75,5.75 0 1 0 -11.5,0 5.7500001,5.7500001 0 1 0 11.5,0 z"
         inkscape:connector-curvature="0" />
      <path
         id="path4542"
         style="fill:none;stroke:#0000ff;stroke-width:0.26458332"
         d="m 137.7675,226.12999 a 5.75,5.75 0 1 0 -11.5,0 5.7500001,5.7500001 0 1 0 11.5,0 z"
         inkscape:connector-curvature="0" />
      <path
         id="path4544"
         style="fill:none;stroke:#0000ff;stroke-width:0.26458332"
         d="m 158.15,226.12999 a 5.75,5.75 0 1 0 -11.5,0 5.75,5.75 0 1 0 11.5,0 z"
         inkscape:connector-curvature="0" />
      <path
         id="path4546"
         style="fill:none;stroke:#0000ff;stroke-width:0.26458332"
         d="m 178.5325,226.12999 a 5.75,5.75 0 1 0 -11.5,0 5.7500001,5.7500001 0 1 0 11.5,0 z"
         inkscape:connector-curvature="0" />
      <path
         id="path4548"
         style="fill:none;stroke:#0000ff;stroke-width:0.26458332"
         d="m 198.915,226.12999 a 5.75,5.75 0 1 0 -11.5,0 5.75,5.75 0 1 0 11.5,0 z"
         inkscape:connector-curvature="0" />
      <path
         id="path4550"
         style="fill:none;stroke:#0000ff;stroke-width:0.26458332"
         d="m 219.2975,226.12999 a 5.75,5.75 0 1 0 -11.5,0 5.75,5.75 0 1 0 11.5,0 z"
         inkscape:connector-curvature="0" />
      <path
         id="path4552"
         style="fill:none;stroke:#0000ff;stroke-width:0.26458332"
         d="m 239.68,226.12999 a 5.7500003,5.7500003 0 1 0 -11.5,0 5.7500003,5.7500003 0 1 0 11.5,0 z"
         inkscape:connector-curvature="0" />
      <path
         id="path4554"
         style="fill:none;stroke:#0000ff;stroke-width:0.26458332"
         d="m 76.62,205.74748 a 5.7499998,5.7499998 0 1 0 -11.499999,0 5.7499998,5.7499998 0 1 0 11.499999,0 z"
         inkscape:connector-curvature="0" />
      <path
         id="path4556"
         style="fill:none;stroke:#0000ff;stroke-width:0.26458332"
         d="m 97.0025,205.74748 a 5.7500005,5.7500005 0 1 0 -11.500001,0 5.7500005,5.7500005 0 1 0 11.500001,0 z"
         inkscape:connector-curvature="0" />
      <path
         id="path4558"
         style="fill:none;stroke:#0000ff;stroke-width:0.26458332"
         d="m 117.385,205.74748 a 5.75,5.75 0 1 0 -11.5,0 5.7500001,5.7500001 0 1 0 11.5,0 z"
         inkscape:connector-curvature="0" />
      <path
         id="path4560"
         style="fill:none;stroke:#0000ff;stroke-width:0.26458332"
         d="m 137.7675,205.74748 a 5.75,5.75 0 1 0 -11.5,0 5.7500001,5.7500001 0 1 0 11.5,0 z"
         inkscape:connector-curvature="0" />
      <path
         id="path4562"
         style="fill:none;stroke:#0000ff;stroke-width:0.26458332"
         d="m 158.15,205.74748 a 5.75,5.75 0 1 0 -11.5,0 5.75,5.75 0 1 0 11.5,0 z"
         inkscape:connector-curvature="0" />
      <path
         id="path4564"
         style="fill:none;stroke:#0000ff;stroke-width:0.26458332"
         d="m 178.5325,205.74748 a 5.75,5.75 0 1 0 -11.5,0 5.7500001,5.7500001 0 1 0 11.5,0 z"
         inkscape:connector-curvature="0" />
      <path
         id="path4566"
         style="fill:none;stroke:#0000ff;stroke-width:0.26458332"
         d="m 198.915,205.74748 a 5.75,5.75 0 1 0 -11.5,0 5.75,5.75 0 1 0 11.5,0 z"
         inkscape:connector-curvature="0" />
      <path
         id="path4568"
         style="fill:none;stroke:#0000ff;stroke-width:0.26458332"
         d="m 219.2975,205.74748 a 5.75,5.75 0 1 0 -11.5,0 5.75,5.75 0 1 0 11.5,0 z"
         inkscape:connector-curvature="0" />
      <path
         id="path4570"
         style="fill:none;stroke:#0000ff;stroke-width:0.26458332"
         d="m 239.68,205.74748 a 5.7500003,5.7500003 0 1 0 -11.5,0 5.7500003,5.7500003 0 1 0 11.5,0 z"
         inkscape:connector-curvature="0" />
      <path
         id="path4572"
         style="fill:none;stroke:#0000ff;stroke-width:0.26458332"
         d="m 76.62,185.36498 a 5.7499998,5.7499998 0 1 0 -11.499999,0 5.7499998,5.7499998 0 1 0 11.499999,0 z"
         inkscape:connector-curvature="0" />
      <path
         id="path4574"
         style="fill:none;stroke:#0000ff;stroke-width:0.26458332"
         d="m 97.0025,185.36498 a 5.7500005,5.7500005 0 1 0 -11.500001,0 5.7500005,5.7500005 0 1 0 11.500001,0 z"
         inkscape:connector-curvature="0" />
      <path
         id="path4576"
         style="fill:none;stroke:#0000ff;stroke-width:0.26458332"
         d="m 117.385,185.36498 a 5.75,5.75 0 1 0 -11.5,0 5.7500001,5.7500001 0 1 0 11.5,0 z"
         inkscape:connector-curvature="0" />
      <path
         id="path4578"
         style="fill:none;stroke:#0000ff;stroke-width:0.26458332"
         d="m 137.7675,185.36498 a 5.75,5.75 0 1 0 -11.5,0 5.7500001,5.7500001 0 1 0 11.5,0 z"
         inkscape:connector-curvature="0" />
      <path
         id="path4580"
         style="fill:none;stroke:#0000ff;stroke-width:0.26458332"
         d="m 158.15,185.36498 a 5.75,5.75 0 1 0 -11.5,0 5.75,5.75 0 1 0 11.5,0 z"
         inkscape:connector-curvature="0" />
      <path
         id="path4582"
         style="fill:none;stroke:#0000ff;stroke-width:0.26458332"
         d="m 178.5325,185.36498 a 5.75,5.75 0 1 0 -11.5,0 5.7500001,5.7500001 0 1 0 11.5,0 z"
         inkscape:connector-curvature="0" />
      <path
         id="path4584"
         style="fill:none;stroke:#0000ff;stroke-width:0.26458332"
         d="m 198.915,185.36498 a 5.75,5.75 0 1 0 -11.5,0 5.75,5.75 0 1 0 11.5,0 z"
         inkscape:connector-curvature="0" />
      <path
         id="path4586"
         style="fill:none;stroke:#0000ff;stroke-width:0.26458332"
         d="m 219.2975,185.36498 a 5.75,5.75 0 1 0 -11.5,0 5.75,5.75 0 1 0 11.5,0 z"
         inkscape:connector-curvature="0" />
      <path
         id="path4588"
         style="fill:none;stroke:#0000ff;stroke-width:0.26458332"
         d="m 239.68,185.36498 a 5.7500003,5.7500003 0 1 0 -11.5,0 5.7500003,5.7500003 0 1 0 11.5,0 z"
         inkscape:connector-curvature="0" />
      <path
         id="path4590"
         style="fill:none;stroke:#0000ff;stroke-width:0.26458332"
         d="m 76.62,164.98248 a 5.7499998,5.7499998 0 1 0 -11.499999,0 5.7499998,5.7499998 0 1 0 11.499999,0 z"
         inkscape:connector-curvature="0" />
      <path
         id="path4592"
         style="fill:none;stroke:#0000ff;stroke-width:0.26458332"
         d="m 97.0025,164.98248 a 5.7500005,5.7500005 0 1 0 -11.500001,0 5.7500005,5.7500005 0 1 0 11.500001,0 z"
         inkscape:connector-curvature="0" />
      <path
         id="path4594"
         style="fill:none;stroke:#0000ff;stroke-width:0.26458332"
         d="m 117.385,164.98248 a 5.75,5.75 0 1 0 -11.5,0 5.7500001,5.7500001 0 1 0 11.5,0 z"
         inkscape:connector-curvature="0" />
      <path
         id="path4596"
         style="fill:none;stroke:#0000ff;stroke-width:0.26458332"
         d="m 137.7675,164.98248 a 5.75,5.75 0 1 0 -11.5,0 5.7500001,5.7500001 0 1 0 11.5,0 z"
         inkscape:connector-curvature="0" />
      <path
         id="path4598"
         style="fill:none;stroke:#0000ff;stroke-width:0.26458332"
         d="m 158.15,164.98248 a 5.75,5.75 0 1 0 -11.5,0 5.75,5.75 0 1 0 11.5,0 z"
         inkscape:connector-curvature="0" />
      <path
         id="path4600"
         style="fill:none;stroke:#0000ff;stroke-width:0.26458332"
         d="m 178.5325,164.98248 a 5.75,5.75 0 1 0 -11.5,0 5.7500001,5.7500001 0 1 0 11.5,0 z"
         inkscape:connector-curvature="0" />
      <path
         id="path4602"
         style="fill:none;stroke:#0000ff;stroke-width:0.26458332"
         d="m 198.915,164.98248 a 5.75,5.75 0 1 0 -11.5,0 5.75,5.75 0 1 0 11.5,0 z"
         inkscape:connector-curvature="0" />
      <path
         id="path4604"
         style="fill:none;stroke:#0000ff;stroke-width:0.26458332"
         d="m 219.2975,164.98248 a 5.75,5.75 0 1 0 -11.5,0 5.75,5.75 0 1 0 11.5,0 z"
         inkscape:connector-curvature="0" />
      <path
         id="path4606"
         style="fill:none;stroke:#0000ff;stroke-width:0.26458332"
         d="m 239.68,164.98248 a 5.7500003,5.7500003 0 1 0 -11.5,0 5.7500003,5.7500003 0 1 0 11.5,0 z"
         inkscape:connector-curvature="0" />
      <path
         id="path4608"
         style="fill:none;stroke:#0000ff;stroke-width:0.26458332"
         d="m 76.62,144.59998 a 5.7499998,5.7499998 0 1 0 -11.499999,0 5.7499998,5.7499998 0 1 0 11.499999,0 z"
         inkscape:connector-curvature="0" />
      <path
         id="path4610"
         style="fill:none;stroke:#0000ff;stroke-width:0.26458332"
         d="m 97.0025,144.59998 a 5.7500005,5.7500005 0 1 0 -11.500001,0 5.7500005,5.7500005 0 1 0 11.500001,0 z"
         inkscape:connector-curvature="0" />
      <path
         id="path4612"
         style="fill:none;stroke:#0000ff;stroke-width:0.26458332"
         d="m 117.385,144.59998 a 5.75,5.75 0 1 0 -11.5,0 5.7500001,5.7500001 0 1 0 11.5,0 z"
         inkscape:connector-curvature="0" />
      <path
         id="path4614"
         style="fill:none;stroke:#0000ff;stroke-width:0.26458332"
         d="m 137.7675,144.59998 a 5.75,5.75 0 1 0 -11.5,0 5.7500001,5.7500001 0 1 0 11.5,0 z"
         inkscape:connector-curvature="0" />
      <path
         id="path4616"
         style="fill:none;stroke:#0000ff;stroke-width:0.26458332"
         d="m 158.15,144.59998 a 5.75,5.75 0 1 0 -11.5,0 5.75,5.75 0 1 0 11.5,0 z"
         inkscape:connector-curvature="0" />
      <path
         id="path4618"
         style="fill:none;stroke:#0000ff;stroke-width:0.26458332"
         d="m 178.5325,144.59998 a 5.75,5.75 0 1 0 -11.5,0 5.7500001,5.7500001 0 1 0 11.5,0 z"
         inkscape:connector-curvature="0" />
      <path
         id="path4620"
         style="fill:none;stroke:#0000ff;stroke-width:0.26458332"
         d="m 198.915,144.59998 a 5.75,5.75 0 1 0 -11.5,0 5.75,5.75 0 1 0 11.5,0 z"
         inkscape:connector-curvature="0" />
      <path
         id="path4622"
         style="fill:none;stroke:#0000ff;stroke-width:0.26458332"
         d="m 219.2975,144.59998 a 5.75,5.75 0 1 0 -11.5,0 5.75,5.75 0 1 0 11.5,0 z"
         inkscape:connector-curvature="0" />
      <path
         id="path4624"
         style="fill:none;stroke:#0000ff;stroke-width:0.26458332"
         d="m 239.68,144.59998 a 5.7500003,5.7500003 0 1 0 -11.5,0 5.7500003,5.7500003 0 1 0 11.5,0 z"
         inkscape:connector-curvature="0" />
      <path
         id="path4626"
         style="fill:none;stroke:#0000ff;stroke-width:0.26458332"
         d="m 76.62,124.21748 a 5.7499998,5.7499998 0 1 0 -11.499999,0 5.7499998,5.7499998 0 1 0 11.499999,0 z"
         inkscape:connector-curvature="0" />
      <path
         id="path4628"
         style="fill:none;stroke:#0000ff;stroke-width:0.26458332"
         d="m 97.0025,124.21748 a 5.7500005,5.7500005 0 1 0 -11.500001,0 5.7500005,5.7500005 0 1 0 11.500001,0 z"
         inkscape:connector-curvature="0" />
      <path
         id="path4630"
         style="fill:none;stroke:#0000ff;stroke-width:0.26458332"
         d="m 117.385,124.21748 a 5.75,5.75 0 1 0 -11.5,0 5.7500001,5.7500001 0 1 0 11.5,0 z"
         inkscape:connector-curvature="0" />
      <path
         id="path4632"
         style="fill:none;stroke:#0000ff;stroke-width:0.26458332"
         d="m 137.7675,124.21748 a 5.75,5.75 0 1 0 -11.5,0 5.7500001,5.7500001 0 1 0 11.5,0 z"
         inkscape:connector-curvature="0" />
      <path
         id="path4634"
         style="fill:none;stroke:#0000ff;stroke-width:0.26458332"
         d="m 158.15,124.21748 a 5.75,5.75 0 1 0 -11.5,0 5.75,5.75 0 1 0 11.5,0 z"
         inkscape:connector-curvature="0" />
      <path
         id="path4636"
         style="fill:none;stroke:#0000ff;stroke-width:0.26458332"
         d="m 178.5325,124.21748 a 5.75,5.75 0 1 0 -11.5,0 5.7500001,5.7500001 0 1 0 11.5,0 z"
         inkscape:connector-curvature="0" />
      <path
         id="path4638"
         style="fill:none;stroke:#0000ff;stroke-width:0.26458332"
         d="m 198.915,124.21748 a 5.75,5.75 0 1 0 -11.5,0 5.75,5.75 0 1 0 11.5,0 z"
         inkscape:connector-curvature="0" />
      <path
         id="path4640"
         style="fill:none;stroke:#0000ff;stroke-width:0.26458332"
         d="m 219.2975,124.21748 a 5.75,5.75 0 1 0 -11.5,0 5.75,5.75 0 1 0 11.5,0 z"
         inkscape:connector-curvature="0" />
      <path
         id="path4642"
         style="fill:none;stroke:#0000ff;stroke-width:0.26458332"
         d="m 239.68,124.21748 a 5.7500003,5.7500003 0 1 0 -11.5,0 5.7500003,5.7500003 0 1 0 11.5,0 z"
         inkscape:connector-curvature="0" />
      <path
         id="path4644"
         style="fill:none;stroke:#0000ff;stroke-width:0.26458332"
         d="m 76.62,103.83498 a 5.7499998,5.7499998 0 1 0 -11.499999,0 5.7499998,5.7499998 0 1 0 11.499999,0 z"
         inkscape:connector-curvature="0" />
      <path
         id="path4646"
         style="fill:none;stroke:#0000ff;stroke-width:0.26458332"
         d="m 97.0025,103.83498 a 5.7500005,5.7500005 0 1 0 -11.500001,0 5.7500005,5.7500005 0 1 0 11.500001,0 z"
         inkscape:connector-curvature="0" />
      <path
         id="path4648"
         style="fill:none;stroke:#0000ff;stroke-width:0.26458332"
         d="m 117.385,103.83498 a 5.75,5.75 0 1 0 -11.5,0 5.7500001,5.7500001 0 1 0 11.5,0 z"
         inkscape:connector-curvature="0" />
      <path
         id="path4650"
         style="fill:none;stroke:#0000ff;stroke-width:0.26458332"
         d="m 137.7675,103.83498 a 5.75,5.75 0 1 0 -11.5,0 5.7500001,5.7500001 0 1 0 11.5,0 z"
         inkscape:connector-curvature="0" />
      <path
         id="path4652"
         style="fill:none;stroke:#0000ff;stroke-width:0.26458332"
         d="m 158.15,103.83498 a 5.75,5.75 0 1 0 -11.5,0 5.75,5.75 0 1 0 11.5,0 z"
         inkscape:connector-curvature="0" />
      <path
         id="path4654"
         style="fill:none;stroke:#0000ff;stroke-width:0.26458332"
         d="m 178.5325,103.83498 a 5.75,5.75 0 1 0 -11.5,0 5.7500001,5.7500001 0 1 0 11.5,0 z"
         inkscape:connector-curvature="0" />
      <path
         id="path4656"
         style="fill:none;stroke:#0000ff;stroke-width:0.26458332"
         d="m 198.915,103.83498 a 5.75,5.75 0 1 0 -11.5,0 5.75,5.75 0 1 0 11.5,0 z"
         inkscape:connector-curvature="0" />
      <path
         id="path4658"
         style="fill:none;stroke:#0000ff;stroke-width:0.26458332"
         d="m 219.2975,103.83498 a 5.75,5.75 0 1 0 -11.5,0 5.75,5.75 0 1 0 11.5,0 z"
         inkscape:connector-curvature="0" />
      <path
         id="path4660"
         style="fill:none;stroke:#0000ff;stroke-width:0.26458332"
         d="m 239.68,103.83498 a 5.7500003,5.7500003 0 1 0 -11.5,0 5.7500003,5.7500003 0 1 0 11.5,0 z"
         inkscape:connector-curvature="0" />
      <path
         id="path4662"
         style="fill:none;stroke:#0000ff;stroke-width:0.26458332"
         d="m 76.62,83.452481 a 5.7499998,5.7499998 0 1 0 -11.499999,0 5.7499998,5.7499998 0 1 0 11.499999,0 z"
         inkscape:connector-curvature="0" />
      <path
         id="path4664"
         style="fill:none;stroke:#0000ff;stroke-width:0.26458332"
         d="m 97.0025,83.452481 a 5.7500005,5.7500005 0 1 0 -11.500001,0 5.7500005,5.7500005 0 1 0 11.500001,0 z"
         inkscape:connector-curvature="0" />
      <path
         id="path4666"
         style="fill:none;stroke:#0000ff;stroke-width:0.26458332"
         d="m 117.385,83.452481 a 5.75,5.75 0 1 0 -11.5,0 5.7500001,5.7500001 0 1 0 11.5,0 z"
         inkscape:connector-curvature="0" />
      <path
         id="path4668"
         style="fill:none;stroke:#0000ff;stroke-width:0.26458332"
         d="m 137.7675,83.452481 a 5.75,5.75 0 1 0 -11.5,0 5.7500001,5.7500001 0 1 0 11.5,0 z"
         inkscape:connector-curvature="0" />
      <path
         id="path4670"
         style="fill:none;stroke:#0000ff;stroke-width:0.26458332"
         d="m 158.15,83.452481 a 5.75,5.75 0 1 0 -11.5,0 5.75,5.75 0 1 0 11.5,0 z"
         inkscape:connector-curvature="0" />
      <path
         id="path4672"
         style="fill:none;stroke:#0000ff;stroke-width:0.26458332"
         d="m 178.5325,83.452481 a 5.75,5.75 0 1 0 -11.5,0 5.7500001,5.7500001 0 1 0 11.5,0 z"
         inkscape:connector-curvature="0" />
      <path
         id="path4674"
         style="fill:none;stroke:#0000ff;stroke-width:0.26458332"
         d="m 198.915,83.452481 a 5.75,5.75 0 1 0 -11.5,0 5.75,5.75 0 1 0 11.5,0 z"
         inkscape:connector-curvature="0" />
      <path
         id="path4676"
         style="fill:none;stroke:#0000ff;stroke-width:0.26458332"
         d="m 219.2975,83.452481 a 5.75,5.75 0 1 0 -11.5,0 5.75,5.75 0 1 0 11.5,0 z"
         inkscape:connector-curvature="0" />
      <path
         id="path4678"
         style="fill:none;stroke:#0000ff;stroke-width:0.26458332"
         d="m 239.68,83.452481 a 5.7500003,5.7500003 0 1 0 -11.5,0 5.7500003,5.7500003 0 1 0 11.5,0 z"
         inkscape:connector-curvature="0" />
      <path
         id="path4680"
         style="fill:none;stroke:#0000ff;stroke-width:0.26458332"
         d="m 76.62,63.069982 a 5.7499998,5.7499998 0 1 0 -11.499999,0 5.7499998,5.7499998 0 1 0 11.499999,0 z"
         inkscape:connector-curvature="0" />
      <path
         id="path4682"
         style="fill:none;stroke:#0000ff;stroke-width:0.26458332"
         d="m 97.0025,63.069982 a 5.7500005,5.7500005 0 1 0 -11.500001,0 5.7500005,5.7500005 0 1 0 11.500001,0 z"
         inkscape:connector-curvature="0" />
      <path
         id="path4684"
         style="fill:none;stroke:#0000ff;stroke-width:0.26458332"
         d="m 117.385,63.069982 a 5.75,5.75 0 1 0 -11.5,0 5.7500001,5.7500001 0 1 0 11.5,0 z"
         inkscape:connector-curvature="0" />
      <path
         id="path4686"
         style="fill:none;stroke:#0000ff;stroke-width:0.26458332"
         d="m 137.7675,63.069982 a 5.75,5.75 0 1 0 -11.5,0 5.7500001,5.7500001 0 1 0 11.5,0 z"
         inkscape:connector-curvature="0" />
      <path
         id="path4688"
         style="fill:none;stroke:#0000ff;stroke-width:0.26458332"
         d="m 158.15,63.069982 a 5.75,5.75 0 1 0 -11.5,0 5.75,5.75 0 1 0 11.5,0 z"
         inkscape:connector-curvature="0" />
      <path
         id="path4690"
         style="fill:none;stroke:#0000ff;stroke-width:0.26458332"
         d="m 178.5325,63.069982 a 5.75,5.75 0 1 0 -11.5,0 5.7500001,5.7500001 0 1 0 11.5,0 z"
         inkscape:connector-curvature="0" />
      <path
         id="path4692"
         style="fill:none;stroke:#0000ff;stroke-width:0.26458332"
         d="m 198.915,63.069982 a 5.75,5.75 0 1 0 -11.5,0 5.75,5.75 0 1 0 11.5,0 z"
         inkscape:connector-curvature="0" />
      <path
         id="path4694"
         style="fill:none;stroke:#0000ff;stroke-width:0.26458332"
         d="m 219.2975,63.069982 a 5.75,5.75 0 1 0 -11.5,0 5.75,5.75 0 1 0 11.5,0 z"
         inkscape:connector-curvature="0" />
      <path
         id="path4696"
         style="fill:none;stroke:#0000ff;stroke-width:0.26458332"
         d="m 239.68,63.069982 a 5.7500003,5.7500003 0 1 0 -11.5,0 5.7500003,5.7500003 0 1 0 11.5,0 z"
         inkscape:connector-curvature="0" />
    </g>
    <g
       style="clip-rule:evenodd;display:inline;fill-rule:evenodd;image-rendering:optimizeQuality;shape-rendering:geometricPrecision;text-rendering:geometricPrecision"
       id="g4655"
       transform="matrix(0.26458333,0,0,0.26458333,118.61128,-198.75786)">
      <g
         id="g4638"
         transform="matrix(-1.3491172,0,0,1.3491172,318.58984,1178.6321)"
         style="opacity:0.3">
        <path
           style="fill:#000000;fill-rule:nonzero;stroke-width:1.34911716"
           d="m 0.50195312,267.62109 v 29.59375 c -0.11820165,276.51094 0,552.03118 0,824.80666 H 129.7207 c 124.18258,0.6768 492.7556,0 725.17969,0 V 267.62109 Z M 59.689453,326.80859 H 199.63281 c -7.93738,23.32495 -12.24804,48.31099 -12.24804,74.28321 0,14.63929 1.38247,28.95952 3.99804,42.85156 -50.57541,20.17464 -93.4809,37.30948 -131.693357,52.58203 z m 180.212887,0 h 357.33985 c 9.48237,22.85808 14.72265,47.94192 14.72265,74.28321 0,21.29218 -3.42787,41.76144 -9.74609,60.90039 -24.00026,-4.29599 -48.81123,0.36775 -68.73242,13.99804 -17.45421,-31.99937 -48.14943,-47.96982 -80.56641,-48.41015 -12.6849,-0.17231 -25.63273,2.03267 -38.1543,6.58594 -45.86998,17.53852 -72.85299,62.06068 -60.71093,110.6289 -13.82649,4.60883 -26.07526,12.05549 -36.21485,21.52539 -55.62274,-33.91388 -92.66015,-95.13752 -92.66015,-165.22851 0,-26.34129 5.24029,-51.42513 14.72265,-74.28321 z m 397.60938,0 h 158.19726 l -1.01015,329.23675 C 761.8789,605.92476 714.53447,541.64714 680.54094,540.74715 c -4.22499,-27.45448 -22.90042,-48.34057 -41.58726,-69.22148 3.32578,-15.58167 10.80609,-53.87592 10.80609,-70.43387 0,-25.97222 -4.31067,-50.95826 -12.24805,-74.28321 z M 459.48047,462.99414 c 25.38647,-0.17038 47.87504,14.14171 58.7793,41.40234 2.42317,7.26951 10.90496,9.69204 16.96289,4.84571 15.19097,-13.29211 34.84686,-19.14101 53.71875,-16.38672 -32.61323,60.57419 -96.57571,101.62891 -170.36914,101.62891 -23.13696,0 -45.30417,-4.04165 -65.84571,-11.44922 9.06333,-8.41022 20.55156,-14.36321 33.47071,-16.84766 6.05791,-1.21159 9.69399,-8.48114 8.48242,-14.53906 -14.53902,-36.34752 2.42202,-70.27219 38.76953,-83.59961 8.78398,-3.33186 17.56909,-4.9979 26.03125,-5.05469 z m -250.74219,35.06055 c 8.1045,17.46494 18.32854,33.75522 30.33594,48.54101 C 162.34601,629.14745 104.13816,692.6846 59.689453,741.91602 V 557.58398 C 102.07404,540.63566 149.42197,521.71719 208.73828,498.05469 Z m 414.46875,10.47851 c 13.26926,11.35865 21.41224,27.53417 22.26953,45.53711 0,6.05792 4.84638,10.9043 10.9043,10.9043 36.34752,0 65.42578,29.07957 65.42578,66.63867 0,36.34753 -30.2892,66.63672 -66.63672,66.63672 H 398.31445 c -36.34752,0 -66.63867,-30.28919 -66.63867,-66.63672 0,-5.37877 0.63436,-10.58957 1.81445,-15.57617 26.3466,10.47199 55.05175,16.24219 85.08204,16.24219 88.69543,0 165.87964,-50.24243 204.63476,-123.7461 z m -343.30078,77.40625 c 5.10588,3.84108 10.38047,7.46872 15.80078,10.88477 -5.88372,12.64729 -9.10742,26.61084 -9.10742,41.05859 0,18.72344 5.64161,36.24878 15.27539,51.06055 C 227.29298,885.96542 182.3636,999.18285 155.73242,1062.8301 H 59.689453 V 826.84766 C 106.72338,773.95041 176.58596,697.11082 279.90625,585.93945 Z m 68.23828,140.88867 c 11.08427,4.40884 23.10801,6.8418 35.58985,6.8418 h 7.22265 V 1062.8301 H 217.11914 C 243.96099,997.58445 284.9495,893.49869 348.14453,726.82812 Z m 373.68945,10.91407 c 10.42651,8.80053 52.47789,66.69851 55.3418,107.6875 l 0.0449,0.61914 c 0.65798,9.34041 2.41546,34.14596 -12.54101,50.20117 -9.50491,10.20296 -24.35699,15.38402 -44.13867,15.39258 l -0.0527,0.002 c -18.66394,0 -32.84357,-5.41073 -42.15234,-16.08398 -16.19865,-18.57748 -13.18007,-47.47262 -12.40821,-53.07813 6.39634,-46.63456 46.89906,-94.57734 55.90625,-104.74023 z M 491.1582,750.07422 c 11.38032,9.60556 57.27842,72.79858 60.4043,117.53711 l 0.0488,0.67578 c 0.71816,10.19484 2.63909,37.26907 -13.68555,54.79297 -10.3744,11.1363 -26.58648,16.79339 -48.17773,16.80273 l -0.0586,0.002 c -20.37124,0 -35.8475,-5.90701 -46.00781,-17.55665 -17.68045,-20.27689 -14.38543,-51.81335 -13.54297,-57.93164 6.98145,-50.90055 51.1884,-103.22972 61.01953,-114.32226 z m 120.61719,117.98047 c 11.35051,9.5804 57.13035,72.60716 60.24805,117.22851 l 0.0469,0.67578 c 0.71628,10.16811 2.6315,37.17042 -13.65039,54.64842 -10.34723,11.1072 -26.51608,16.7485 -48.05078,16.7578 h -0.0586 c -20.31789,0 -35.75498,-5.8907 -45.88867,-17.5098 -17.63417,-20.2238 -14.34612,-51.67897 -13.50586,-57.78123 10.47404,-43.26998 31.54588,-80.7827 60.85937,-114.02148 z"
           transform="matrix(-0.74122546,0,0,0.74122546,568.43427,-316.81552)"
           id="path4639"
           inkscape:connector-curvature="0"
           sodipodi:nodetypes="cccccccccscccccsccscccsccccccscscccsccccscccccccssssscscccsccccccscccccccccccccccccccccccccccccccccc" />
      </g>
      <g
         id="g4677"
         transform="matrix(2.1407243,0,0,2.1407243,423.4355,1499.4707)">
        <g
           id="g4659">
          <g
             id="g4675"
             transform="matrix(1.0886182,0,0,1.0886182,48.804393,3.3987579)"
             style="opacity:0.3" />
          <g
             id="g4679"
             transform="matrix(1.0914769,0,0,1.0914769,37.114889,8.7509373)"
             style="opacity:0.3" />
        </g>
      </g>
    </g>
  </g>
</svg>
